<mxfile host="app.diagrams.net" modified="2020-12-03T00:10:08.254Z" agent="5.0 (Macintosh)" etag="bPZ12F0gPtmTjd6lldf_" version="13.10.4" type="github">
  <diagram id="qmwf-evLHJHL_eaq1TcZ" name="Page-1">
    <mxGraphModel dx="2526" dy="2829" grid="1" gridSize="10" guides="1" tooltips="1" connect="1" arrows="1" fold="1" page="1" pageScale="1" pageWidth="827" pageHeight="1169" math="0" shadow="0">
      <root>
        <mxCell id="0" />
        <mxCell id="1" parent="0" />
        <mxCell id="v5R_K2fZtODUzK-9vfK2-1" style="edgeStyle=orthogonalEdgeStyle;rounded=0;orthogonalLoop=1;jettySize=auto;html=1;exitX=0.5;exitY=0.5;exitDx=0;exitDy=0;exitPerimeter=0;entryX=0;entryY=0.5;entryDx=0;entryDy=0;endArrow=none;endFill=0;" edge="1" parent="1" source="v5R_K2fZtODUzK-9vfK2-2" target="v5R_K2fZtODUzK-9vfK2-8">
          <mxGeometry relative="1" as="geometry" />
        </mxCell>
        <mxCell id="v5R_K2fZtODUzK-9vfK2-2" value="Usuario" style="shape=umlActor;verticalLabelPosition=bottom;verticalAlign=top;html=1;outlineConnect=0;" vertex="1" parent="1">
          <mxGeometry x="-860" y="-1450" width="100" height="180" as="geometry" />
        </mxCell>
        <mxCell id="v5R_K2fZtODUzK-9vfK2-3" style="edgeStyle=orthogonalEdgeStyle;rounded=0;orthogonalLoop=1;jettySize=auto;html=1;exitX=0.5;exitY=0.5;exitDx=0;exitDy=0;exitPerimeter=0;entryX=1;entryY=0.5;entryDx=0;entryDy=0;endArrow=none;endFill=0;" edge="1" parent="1" source="v5R_K2fZtODUzK-9vfK2-4" target="v5R_K2fZtODUzK-9vfK2-8">
          <mxGeometry relative="1" as="geometry" />
        </mxCell>
        <mxCell id="v5R_K2fZtODUzK-9vfK2-4" value="Covid Tester" style="shape=umlActor;verticalLabelPosition=bottom;verticalAlign=top;html=1;outlineConnect=0;" vertex="1" parent="1">
          <mxGeometry x="-400" y="-1450" width="100" height="180" as="geometry" />
        </mxCell>
        <mxCell id="v5R_K2fZtODUzK-9vfK2-5" style="edgeStyle=orthogonalEdgeStyle;rounded=0;orthogonalLoop=1;jettySize=auto;html=1;exitX=0.5;exitY=0;exitDx=0;exitDy=0;entryX=0.5;entryY=1;entryDx=0;entryDy=0;endArrow=classic;endFill=1;dashed=1;" edge="1" parent="1" source="v5R_K2fZtODUzK-9vfK2-8" target="v5R_K2fZtODUzK-9vfK2-11">
          <mxGeometry relative="1" as="geometry" />
        </mxCell>
        <mxCell id="v5R_K2fZtODUzK-9vfK2-6" style="rounded=0;orthogonalLoop=1;jettySize=auto;html=1;exitX=0;exitY=1;exitDx=0;exitDy=0;entryX=0.5;entryY=0;entryDx=0;entryDy=0;endArrow=classic;endFill=1;dashed=1;" edge="1" parent="1" source="v5R_K2fZtODUzK-9vfK2-8" target="v5R_K2fZtODUzK-9vfK2-9">
          <mxGeometry relative="1" as="geometry" />
        </mxCell>
        <mxCell id="v5R_K2fZtODUzK-9vfK2-7" style="rounded=0;orthogonalLoop=1;jettySize=auto;html=1;exitX=1;exitY=1;exitDx=0;exitDy=0;entryX=0.5;entryY=0;entryDx=0;entryDy=0;endArrow=classic;endFill=1;dashed=1;" edge="1" parent="1" source="v5R_K2fZtODUzK-9vfK2-8" target="v5R_K2fZtODUzK-9vfK2-10">
          <mxGeometry relative="1" as="geometry" />
        </mxCell>
        <mxCell id="v5R_K2fZtODUzK-9vfK2-8" value="Arduino" style="ellipse;whiteSpace=wrap;html=1;" vertex="1" parent="1">
          <mxGeometry x="-640" y="-1400" width="120" height="80" as="geometry" />
        </mxCell>
        <mxCell id="v5R_K2fZtODUzK-9vfK2-9" value="Display datos pertinetes y estado" style="ellipse;whiteSpace=wrap;html=1;" vertex="1" parent="1">
          <mxGeometry x="-730" y="-1290" width="120" height="80" as="geometry" />
        </mxCell>
        <mxCell id="v5R_K2fZtODUzK-9vfK2-10" value="Cambio de Usuario" style="ellipse;whiteSpace=wrap;html=1;" vertex="1" parent="1">
          <mxGeometry x="-560" y="-1290" width="120" height="80" as="geometry" />
        </mxCell>
        <mxCell id="v5R_K2fZtODUzK-9vfK2-11" value="RecepciÃ³n datos por sensor" style="ellipse;whiteSpace=wrap;html=1;" vertex="1" parent="1">
          <mxGeometry x="-640" y="-1520" width="120" height="80" as="geometry" />
        </mxCell>
        <mxCell id="v5R_K2fZtODUzK-9vfK2-12" value="&amp;lt;&amp;lt;include&amp;gt;&amp;gt;" style="text;html=1;strokeColor=none;fillColor=none;align=center;verticalAlign=middle;whiteSpace=wrap;rounded=0;dashed=1;" vertex="1" parent="1">
          <mxGeometry x="-640" y="-1430" width="40" height="20" as="geometry" />
        </mxCell>
        <mxCell id="v5R_K2fZtODUzK-9vfK2-13" value="&amp;lt;&amp;lt;include&amp;gt;&amp;gt;" style="text;html=1;strokeColor=none;fillColor=none;align=center;verticalAlign=middle;whiteSpace=wrap;rounded=0;dashed=1;" vertex="1" parent="1">
          <mxGeometry x="-700" y="-1330" width="40" height="20" as="geometry" />
        </mxCell>
        <mxCell id="v5R_K2fZtODUzK-9vfK2-14" value="&amp;lt;&amp;lt;include&amp;gt;&amp;gt;" style="text;html=1;strokeColor=none;fillColor=none;align=center;verticalAlign=middle;whiteSpace=wrap;rounded=0;dashed=1;" vertex="1" parent="1">
          <mxGeometry x="-510" y="-1330" width="40" height="20" as="geometry" />
        </mxCell>
        <mxCell id="v5R_K2fZtODUzK-9vfK2-15" value="&lt;font style=&quot;font-size: 21px&quot;&gt;Nivel 1&lt;br&gt;&lt;/font&gt;" style="text;html=1;strokeColor=none;fillColor=none;align=center;verticalAlign=middle;whiteSpace=wrap;rounded=0;" vertex="1" parent="1">
          <mxGeometry x="-810" y="-1520" width="100" height="20" as="geometry" />
        </mxCell>
      </root>
    </mxGraphModel>
  </diagram>
</mxfile>
